<svg width="67" height="32" viewBox="0 0 67 32" fill="none" xmlns="http://www.w3.org/2000/svg">
<g clip-path="url(#clip0_5035_12244)">
<path d="M4.16 20.3203H0V31.787H4.10667V20.3203H4.16Z" fill="#C57340"/>
<path d="M58.7197 20.3203H52.373V31.787H58.5597C64.2664 31.787 66.133 28.9603 66.133 25.6003C66.133 22.2403 64.053 20.3203 58.6664 20.3203H58.7197ZM62.0797 25.6536C62.0797 28.267 60.853 30.7736 58.133 30.7736H56.4797V21.227H58.133C60.9597 21.227 62.0264 23.307 62.0797 25.547V25.6536Z" fill="#C57340"/>
<path d="M19.2535 28.373C19.0402 32.053 12.9068 32.213 10.4535 31.413C8.42684 30.773 7.14684 29.813 7.14684 29.813L7.8935 28.6396C7.8935 28.6396 8.90684 29.5996 10.2935 29.9196C12.9602 30.6663 15.0402 29.973 15.1468 28.7463C15.1468 26.8796 6.50684 26.5596 6.50684 22.8263C6.50684 19.093 9.70684 19.1463 14.8802 20.1063C16.8535 20.4796 18.5602 21.2796 18.5602 21.2796C18.4002 21.653 18.0802 22.133 18.0802 22.2396C18.0802 22.2396 17.0135 21.7063 15.0402 21.2796C13.3868 20.9063 10.7202 21.2263 10.7202 22.5596C10.6668 24.7996 19.3602 24.533 19.3602 28.3196L19.2535 28.373Z" fill="#C57340"/>
<path d="M50.6136 31.787H46.6669C44.9069 28.3736 43.3603 25.0136 41.6003 21.6003C40.8003 23.467 39.947 25.387 39.147 27.307C38.507 28.8003 37.867 30.2936 37.2803 31.787H35.627C37.4403 27.947 39.147 24.2136 41.0136 20.3203H45.1203C46.9336 24.0536 48.747 28.0003 50.6136 31.787Z" fill="#C57340"/>
<path d="M32.4268 20.3199H33.8668V31.7866H29.7068C27.4135 28.1599 26.0268 26.2933 22.7735 21.8133C22.8268 23.4666 22.8801 25.1199 22.9335 26.7733C22.9868 28.4266 23.0401 30.0799 23.0935 31.7333H21.8135V20.2666H25.7601C26.9868 21.9199 28.1601 23.5733 29.3868 25.2799C30.5601 26.9333 31.6801 28.5333 32.8001 30.1333C32.7468 28.4799 32.6935 26.8266 32.5868 25.1733C32.5335 23.5199 32.4801 21.8666 32.4268 20.2666V20.3199Z" fill="#C57340"/>
<path d="M65.9203 14.827C64.8003 15.5204 63.947 15.0404 63.947 15.0404C64.1604 14.347 64.5337 14.2404 65.227 14.667L65.3337 14.5604V14.187C64.5337 13.8137 63.7337 13.9737 63.3604 15.3604C63.3604 15.3604 63.5737 15.8404 64.267 15.7337L63.467 16.0537L63.3604 16.5337L65.8137 15.5737L66.027 14.987L65.9203 14.8804V14.827Z" fill="#FBF5EF"/>
<path d="M20.1599 0.320312L11.4665 2.82698L10.8799 3.57365L20.3199 1.01365L20.5332 0.800313L20.1599 0.320312Z" fill="#FBF5EF"/>
<path d="M42.2396 1.28027C41.5462 1.28027 40.9062 1.97361 40.9062 2.77361C40.9062 3.57361 41.5462 4.10694 42.2396 4.10694C42.9329 4.10694 43.5729 3.46694 43.5729 2.77361C43.5729 2.08027 42.9329 1.28027 42.2396 1.28027ZM42.8796 3.09361C42.6663 3.30694 42.3996 3.30694 42.2396 3.30694C42.0796 3.30694 41.8129 3.30694 41.6529 3.09361C41.4396 2.88027 41.4396 2.61361 41.4396 2.56027C41.4396 2.18694 41.7596 1.76027 42.2396 1.76027C42.7196 1.76027 42.9862 2.24027 43.0396 2.56027C43.0396 2.56027 43.0396 2.88027 42.8796 3.09361Z" fill="#FBF5EF"/>
<path d="M65.3866 0.37294H65.1733C65.1733 0.319606 64.2666 1.43961 64.2666 1.43961V13.2263L65.0666 12.9596C65.1199 12.7463 65.3333 11.9996 65.4399 11.4129C65.5999 10.6129 65.5999 7.25294 65.4399 0.37294H65.3866Z" fill="#FBF5EF"/>
<path d="M15.7334 6.02654C15.4667 6.23987 15.2 6.4532 14.9334 6.71987C14.6667 6.98654 14.4 7.2532 14.1867 7.51987C13.9734 7.30654 13.76 7.03987 13.4934 6.7732C13.2267 6.50654 12.96 6.23987 12.6934 6.02654C12.96 5.8132 13.2267 5.59987 13.4934 5.3332C13.76 5.06654 14.0267 4.79987 14.1867 4.5332C14.4 4.79987 14.6134 5.06654 14.9334 5.3332C15.2 5.59987 15.4667 5.86654 15.7334 6.02654Z" fill="#FBF5EF"/>
<path d="M62.5064 13.3329C62.3464 13.9196 61.7064 15.2529 60.1597 15.2529C58.5064 15.1996 57.7597 14.0262 57.653 12.1596H57.5997C57.5464 13.2796 55.413 15.3596 51.5197 15.3596C47.6264 15.3596 47.0397 13.8129 47.0397 11.7862H46.8797C44.9064 15.6262 38.2397 15.4129 26.933 15.3596H26.6664C22.2397 15.3596 18.453 15.5196 17.7064 11.7862H17.5464C16.853 14.3996 15.1997 15.3596 12.373 15.3596C8.95971 15.3062 8.37305 12.2129 8.37305 10.8796V1.33289L9.27971 0.212891L9.49305 0.426224V8.53289C9.49305 8.53289 9.33305 11.8396 12.3197 11.8396C15.3064 11.8396 16.053 11.8396 17.2264 10.2929C17.2797 10.1329 16.7464 8.58622 16.7464 8.42622H18.1864C18.8797 11.4129 19.093 11.8396 25.3864 11.8396C30.2397 11.8396 44.7464 12.1062 46.8797 9.86622C47.1464 9.27956 47.4664 8.42622 47.4664 8.42622H48.2664C48.2664 10.5062 50.133 11.8396 52.213 11.8396C54.293 11.8396 56.693 11.6796 57.3864 10.5062L57.1197 8.79956L58.133 7.99956L58.293 10.2929C58.3464 11.7862 60.6397 12.2129 61.653 11.0929C61.5997 9.59956 60.533 7.99956 60.533 7.99956L61.5997 6.29289H61.973C63.093 9.06623 62.933 11.6262 62.613 13.3329H62.5597H62.5064Z" fill="#FBF5EF"/>
<path d="M4.74657 5.11974C5.86657 6.45307 7.57324 8.74641 7.03991 14.4531C6.87991 14.8797 4.90657 15.3597 3.09324 15.3597C-1.17343 15.3597 0.213241 10.1331 0.213241 10.1331H0.586574C0.586574 12.4797 4.79991 11.8397 5.81324 10.9864C5.38657 9.06641 3.46657 7.83974 3.46657 7.83974L4.42657 5.27974L4.79991 5.06641L4.74657 5.11974Z" fill="#FBF5EF"/>
</g>
<defs>
<clipPath id="clip0_5035_12244">
<rect width="66.1333" height="32" fill="white"/>
</clipPath>
</defs>
</svg>
