<svg width="147" height="32" viewBox="0 0 147 32" fill="none" xmlns="http://www.w3.org/2000/svg">
<path d="M48.3986 6.23502C45.6692 5.10176 42.6767 5.69802 40.588 7.79234C38.951 9.43299 37.4752 12.0273 35.9123 14.7734C34.5439 17.1788 33.1273 19.6676 31.8533 20.9453C31.2015 21.599 30.3349 21.9582 29.4127 21.9582C28.4905 21.9582 27.6239 21.599 26.9721 20.9453C25.6981 19.6676 24.2815 17.1788 22.9131 14.7734C21.3502 12.0273 19.8743 9.43299 18.2374 7.79234C16.1486 5.69802 13.1562 5.10176 10.4267 6.23502C7.69728 7.36829 6.00293 9.91074 6.00293 12.8717V24.4192C6.00293 25.4728 6.85658 26.3283 7.90837 26.3283C8.96017 26.3283 9.81382 25.4728 9.81382 24.4192V12.8717C9.81382 11.4644 10.5879 10.3015 11.8859 9.7626C13.184 9.22374 14.5524 9.49595 15.545 10.4922C16.8208 11.7699 18.2356 14.2586 19.6058 16.6641C21.1687 19.4102 22.6446 22.0045 24.2815 23.6451C25.6536 25.0191 27.4758 25.7765 29.4145 25.7765C31.3533 25.7765 33.1773 25.0191 34.5476 23.6451C36.1845 22.0045 37.6604 19.4102 39.2232 16.6641C40.5917 14.2568 42.0083 11.7699 43.2823 10.4922C44.2748 9.49595 45.6432 9.22374 46.9413 9.7626C48.2394 10.3015 49.0134 11.4644 49.0134 12.8717V24.4192C49.0134 25.4728 49.8671 26.3283 50.9189 26.3283C51.9706 26.3283 52.8243 25.4728 52.8243 24.4192V12.8717C52.8243 9.91074 51.1281 7.36829 48.4005 6.23502" fill="white"/>
<path d="M61.6778 10.1535C61.8074 10.1535 61.9185 10.1072 62.0111 10.0147C62.1037 9.92207 62.15 9.81096 62.15 9.68134C62.15 9.55172 62.1037 9.44802 62.0111 9.35543C61.9185 9.26285 61.8074 9.21655 61.6778 9.21655C61.5481 9.21655 61.437 9.26099 61.3444 9.35173C61.2519 9.44247 61.2056 9.55172 61.2056 9.68134C61.2056 9.81096 61.2519 9.92207 61.3444 10.0147C61.437 10.1072 61.5481 10.1535 61.6778 10.1535Z" fill="white"/>
<path d="M62.9335 10.1535C63.0632 10.1535 63.1743 10.1072 63.2706 10.0147C63.365 9.92207 63.4131 9.81096 63.4131 9.68134C63.4131 9.55172 63.365 9.44802 63.2706 9.35543C63.1761 9.26285 63.0632 9.21655 62.9335 9.21655C62.8039 9.21655 62.7002 9.26099 62.6076 9.35173C62.515 9.44247 62.4688 9.55172 62.4688 9.68134C62.4688 9.81096 62.5132 9.92207 62.6039 10.0147C62.6947 10.1072 62.8039 10.1535 62.9335 10.1535Z" fill="white"/>
<path d="M72.4995 10.1311C72.6292 10.1311 72.7403 10.0848 72.8329 9.99219C72.9254 9.89961 72.9717 9.7885 72.9717 9.65888C72.9717 9.52926 72.9254 9.42556 72.8329 9.33297C72.7403 9.24039 72.6292 9.19409 72.4995 9.19409C72.3699 9.19409 72.2644 9.24039 72.1699 9.33297C72.0755 9.42556 72.0273 9.53481 72.0273 9.65888C72.0273 9.78295 72.0736 9.89961 72.1662 9.99219C72.2588 10.0848 72.3699 10.1311 72.4995 10.1311Z" fill="white"/>
<path d="M76.1396 15.1865C76.0452 15.2791 75.9971 15.3883 75.9971 15.5124C75.9971 15.6365 76.0434 15.7531 76.136 15.8457C76.2285 15.9383 76.3396 15.9846 76.4693 15.9846C76.5989 15.9846 76.71 15.9383 76.8026 15.8457C76.8952 15.7531 76.9415 15.642 76.9415 15.5124C76.9415 15.3828 76.8952 15.2791 76.8026 15.1865C76.71 15.0939 76.5989 15.0476 76.4693 15.0476C76.3396 15.0476 76.2341 15.0939 76.1396 15.1865Z" fill="white"/>
<path d="M75.6695 14.3662H76.1103C76.3251 14.3662 76.5232 14.3125 76.7047 14.2051C76.8861 14.0977 77.0306 13.9533 77.138 13.77C77.2454 13.5885 77.2991 13.3922 77.2991 13.1811V11.172C77.2991 11.0664 77.2602 10.9757 77.1824 10.8979C77.1046 10.8201 77.0139 10.7812 76.9102 10.7812C76.8065 10.7812 76.7084 10.8201 76.6343 10.8979C76.5602 10.9757 76.5213 11.0664 76.5213 11.172V13.1811C76.5213 13.2959 76.4825 13.3941 76.4047 13.4737C76.3269 13.5533 76.2288 13.594 76.1084 13.594H74.814V12.6867C74.814 12.3312 74.727 12.0071 74.5529 11.7127C74.3881 11.4331 74.1622 11.2127 73.8733 11.0535C73.5845 10.8942 73.2697 10.8146 72.9308 10.8146C72.5919 10.8146 72.5271 10.8442 72.3327 10.9053L70.3958 11.4905V11.1905C70.3958 11.0849 70.3587 10.9961 70.2828 10.9201C70.2087 10.8442 70.118 10.8072 70.0143 10.8072C69.9106 10.8072 69.8199 10.8442 69.7458 10.9201C69.6717 10.9942 69.6329 11.0849 69.6329 11.1905V13.5959H64.2035C64.0443 13.5959 63.9184 13.5478 63.8258 13.4496C63.7332 13.3515 63.6869 13.2256 63.6869 13.0719V11.3257C63.6869 11.1812 63.6351 11.0553 63.5295 10.9479C63.4258 10.8405 63.298 10.7868 63.148 10.7868H61.9518C61.6333 10.7868 61.3407 10.8646 61.0778 11.0183C60.813 11.1738 60.6074 11.3831 60.4575 11.6479C60.3075 11.9127 60.2334 12.2071 60.2334 12.533V12.72C60.239 13.02 60.3186 13.2959 60.476 13.5478C60.6334 13.7996 60.8426 13.9996 61.1074 14.1477C61.3722 14.2959 61.6555 14.3681 61.9592 14.3681C62.2629 14.3681 62.4333 14.3125 62.6481 14.2033C62.8629 14.094 63.0388 13.9477 63.1795 13.7681C63.2795 13.9477 63.4221 14.0922 63.6091 14.2033C63.7962 14.3125 63.9943 14.3681 64.2035 14.3681H75.6677L75.6695 14.3662ZM62.911 12.7089C62.9055 12.9645 62.811 13.1756 62.624 13.3422C62.437 13.5089 62.2111 13.594 61.9481 13.594C61.6944 13.5885 61.4741 13.4978 61.287 13.32C61.1 13.1422 61.0037 12.9293 60.9982 12.6793V12.4997C60.9982 12.2293 61.0926 12.0053 61.2833 11.8256C61.4722 11.646 61.7037 11.5553 61.9777 11.5553H62.7407C62.7907 11.5553 62.8314 11.5719 62.8647 11.6034C62.8981 11.6368 62.9129 11.6775 62.9129 11.7275V12.7089H62.911ZM74.0456 13.4218C74.0456 13.4718 74.0307 13.5126 74.0011 13.5459C73.9715 13.5792 73.9345 13.594 73.8882 13.594H70.3958V12.2904L72.5568 11.6312C72.6771 11.596 72.8012 11.5794 72.9308 11.5794C73.1308 11.5794 73.3178 11.6256 73.4919 11.7182C73.666 11.8108 73.7974 11.9367 73.8882 12.096C73.9919 12.2663 74.0456 12.4626 74.0456 12.6885V13.4237V13.4218Z" fill="white"/>
<path d="M82.6524 10.1238C82.782 10.1238 82.8931 10.0775 82.9857 9.98487C83.0783 9.89228 83.1246 9.78118 83.1246 9.65156C83.1246 9.52193 83.0783 9.41268 82.9857 9.32194C82.8931 9.23121 82.782 9.18677 82.6524 9.18677C82.5227 9.18677 82.4116 9.23306 82.3191 9.32565C82.2265 9.41824 82.1802 9.52749 82.1802 9.65156C82.1802 9.77562 82.2283 9.88673 82.3228 9.98117C82.4172 10.0756 82.5265 10.1238 82.6524 10.1238Z" fill="white"/>
<path d="M81.3824 10.1238C81.512 10.1238 81.6231 10.0756 81.7157 9.98117C81.8083 9.88673 81.8545 9.77562 81.8545 9.65156C81.8545 9.52749 81.8083 9.41824 81.7157 9.32565C81.6231 9.23306 81.512 9.18677 81.3824 9.18677C81.2527 9.18677 81.1416 9.23121 81.049 9.32194C80.9564 9.41268 80.9102 9.52193 80.9102 9.65156C80.9102 9.78118 80.9564 9.89228 81.049 9.98487C81.1416 10.0775 81.2527 10.1238 81.3824 10.1238Z" fill="white"/>
<path d="M85.6562 13.7848C85.758 13.607 85.8099 13.4144 85.8099 13.2033V9.50723C85.8099 9.40168 85.7728 9.3128 85.6969 9.23688C85.6229 9.16281 85.5321 9.12392 85.4284 9.12392C85.3247 9.12392 85.2266 9.16096 85.1525 9.23688C85.0784 9.3128 85.0396 9.40168 85.0396 9.50723V13.2033C85.0396 13.3126 85.0007 13.4052 84.9229 13.4811C84.8451 13.5551 84.7544 13.594 84.6507 13.594H83.5822C83.6267 13.5033 83.6489 13.4163 83.6489 13.3311V12.446C83.6489 12.146 83.5748 11.8682 83.4248 11.6108C83.2748 11.3534 83.073 11.1497 82.8156 10.9997C82.5582 10.8497 82.2805 10.7757 81.9823 10.7757C81.6842 10.7757 81.3972 10.8497 81.1379 10.9997C80.8787 11.1497 80.6713 11.3516 80.5176 11.6071C80.3639 11.8627 80.2861 12.1423 80.2861 12.446V12.67C80.2861 13.0441 80.4213 13.3515 80.6898 13.5922H79.501C79.3917 13.5922 79.2991 13.5551 79.2251 13.4792C79.151 13.4052 79.1121 13.3126 79.1121 13.2015V9.50538C79.1121 9.39983 79.0751 9.31095 78.9992 9.23503C78.9251 9.16096 78.8325 9.12207 78.7232 9.12207C78.614 9.12207 78.5288 9.15911 78.4547 9.23503C78.3807 9.31095 78.3418 9.39983 78.3418 9.50538V13.2015C78.3418 13.4107 78.3936 13.6051 78.4955 13.7829C78.5973 13.9607 78.7362 14.1014 78.914 14.207C79.0899 14.3125 79.2843 14.3644 79.4936 14.3644H84.6599C84.8692 14.3644 85.0618 14.3125 85.2395 14.207C85.4155 14.1014 85.5562 13.9607 85.658 13.7829M82.886 13.4663C82.886 13.5014 82.873 13.5311 82.8489 13.557C82.823 13.5829 82.7971 13.594 82.7675 13.594H81.9897C81.7305 13.594 81.5064 13.507 81.3213 13.3348C81.1342 13.1626 81.0416 12.9496 81.0416 12.6941V12.5071C81.0416 12.333 81.0842 12.1719 81.1694 12.0238C81.2546 11.8775 81.3694 11.7608 81.5175 11.6756C81.6638 11.5904 81.8231 11.5479 81.9934 11.5479C82.2434 11.5479 82.4545 11.6349 82.6286 11.8108C82.8026 11.9849 82.8897 12.1978 82.8897 12.4478V13.4663H82.886Z" fill="white"/>
<path d="M87.506 9.12012C87.4004 9.12012 87.3115 9.15715 87.2375 9.23307C87.1634 9.30714 87.1245 9.39788 87.1245 9.50343V13.9791C87.1245 14.0883 87.1615 14.1809 87.2375 14.2569C87.3115 14.3328 87.4023 14.3698 87.506 14.3698C87.6097 14.3698 87.7078 14.3328 87.7819 14.2569C87.856 14.1828 87.8948 14.0902 87.8948 13.9791V9.50343C87.8948 9.39788 87.8578 9.309 87.7819 9.23307C87.7078 9.159 87.6152 9.12012 87.506 9.12012Z" fill="white"/>
<path d="M104.279 15.8457C104.373 15.7531 104.421 15.642 104.421 15.5124C104.421 15.3828 104.373 15.2791 104.279 15.1865C104.184 15.0939 104.071 15.0476 103.942 15.0476C103.812 15.0476 103.709 15.0939 103.616 15.1865C103.523 15.2791 103.477 15.3883 103.477 15.5124C103.477 15.6365 103.521 15.7531 103.612 15.8457C103.703 15.9383 103.812 15.9846 103.942 15.9846C104.071 15.9846 104.183 15.9383 104.279 15.8457Z" fill="white"/>
<path d="M102.665 15.9846C102.794 15.9846 102.905 15.9383 102.998 15.8457C103.09 15.7531 103.137 15.642 103.137 15.5124C103.137 15.3828 103.09 15.2791 102.998 15.1865C102.905 15.0939 102.794 15.0476 102.665 15.0476C102.535 15.0476 102.429 15.0939 102.335 15.1865C102.241 15.2791 102.192 15.3883 102.192 15.5124C102.192 15.6365 102.239 15.7531 102.331 15.8457C102.424 15.9383 102.535 15.9846 102.665 15.9846Z" fill="white"/>
<path d="M108.643 13.5459C108.801 13.294 108.882 13.0181 108.886 12.7181V12.5311C108.886 12.2071 108.812 11.9108 108.662 11.646C108.512 11.3812 108.306 11.1719 108.045 11.0164C107.784 10.8627 107.494 10.7849 107.175 10.7849H105.979C105.829 10.7849 105.703 10.8386 105.597 10.946C105.494 11.0534 105.44 11.1793 105.44 11.3238V13.07C105.44 13.2255 105.394 13.3514 105.303 13.4477C105.21 13.5459 105.083 13.594 104.918 13.594H104.207C104.047 13.594 103.907 13.5403 103.788 13.4329C103.668 13.3255 103.609 13.194 103.609 13.0403V11.8941C103.609 11.7886 103.572 11.6997 103.496 11.6238C103.422 11.5478 103.329 11.5108 103.22 11.5108C103.11 11.5108 103.018 11.5478 102.944 11.6238C102.868 11.6978 102.833 11.7886 102.833 11.8941V13.0329C102.833 13.1885 102.779 13.32 102.672 13.4311C102.564 13.5403 102.433 13.5959 102.279 13.5959H94.8017C94.6776 13.5959 94.572 13.5533 94.4869 13.4681C94.4017 13.3829 94.3591 13.2829 94.3591 13.1681V12.5015C94.3591 12.1922 94.2832 11.9052 94.1313 11.6423C93.9795 11.3793 93.7739 11.1719 93.5147 11.0164C93.2555 10.8627 92.9721 10.7849 92.6629 10.7849H91.5111C91.3611 10.7849 91.2352 10.8386 91.1296 10.946C91.0241 11.0534 90.9722 11.1793 90.9722 11.3238V14.0144C90.9722 14.5143 90.7445 14.8569 90.2927 15.0421C90.2278 15.0773 90.1778 15.1273 90.1427 15.1921C90.1075 15.2569 90.0908 15.3235 90.0908 15.3939C90.0908 15.5032 90.1316 15.5939 90.2112 15.6643C90.2908 15.7346 90.3834 15.7698 90.4871 15.7698C90.5908 15.7698 90.6093 15.755 90.6593 15.7254C90.9593 15.5902 91.2037 15.4032 91.3963 15.1624C91.5889 14.9217 91.6963 14.6199 91.7222 14.2551L91.737 14.0144C91.8463 14.1199 91.9833 14.2051 92.1444 14.2699C92.3055 14.3347 92.4796 14.368 92.6647 14.368C92.8499 14.368 93.1277 14.318 93.3351 14.218C93.5406 14.1181 93.7202 13.9773 93.8702 13.7977C93.9498 13.9681 94.0739 14.1051 94.2443 14.2106C94.4146 14.3162 94.5998 14.368 94.8054 14.368H102.373C102.553 14.368 102.727 14.3254 102.897 14.2403C103.066 14.1551 103.192 14.0532 103.272 13.9329C103.286 13.9829 103.338 14.0421 103.429 14.1088C103.518 14.1755 103.633 14.2366 103.77 14.2884C103.907 14.3403 104.055 14.3662 104.214 14.3662H104.925C105.14 14.3662 105.338 14.3125 105.523 14.2051C105.708 14.0977 105.853 13.9514 105.957 13.7662C106.095 13.9458 106.273 14.0903 106.488 14.2014C106.703 14.3106 106.932 14.3662 107.175 14.3662C107.418 14.3662 107.762 14.2921 108.023 14.1458C108.284 13.9995 108.495 13.7977 108.651 13.5459M93.5943 12.6941C93.5851 12.944 93.4906 13.157 93.3147 13.3311C93.1369 13.5051 92.9184 13.594 92.661 13.594C92.4036 13.594 92.1963 13.5144 92.0148 13.3588C91.8333 13.2014 91.7426 12.9903 91.7426 12.7255V11.7441C91.7426 11.6997 91.7592 11.6589 91.7907 11.6238C91.8222 11.5886 91.8648 11.5719 91.9148 11.5719H92.6629C92.9221 11.5719 93.1425 11.6626 93.3258 11.8423C93.5073 12.0219 93.598 12.2422 93.598 12.5015V12.6959L93.5943 12.6941ZM107.173 13.594C106.908 13.594 106.684 13.5107 106.499 13.3422C106.314 13.1755 106.22 12.9644 106.216 12.7089V11.7274C106.216 11.6775 106.232 11.6367 106.264 11.6034C106.295 11.5719 106.338 11.5552 106.388 11.5552H107.151C107.425 11.5552 107.656 11.646 107.843 11.8256C108.031 12.0052 108.123 12.2311 108.123 12.4996V12.6792C108.118 12.9292 108.023 13.1422 107.838 13.32C107.653 13.4977 107.431 13.5885 107.173 13.594Z" fill="white"/>
<path d="M114.136 10.1535C114.265 10.1535 114.376 10.1072 114.473 10.0147C114.567 9.92207 114.615 9.81096 114.615 9.68134C114.615 9.55172 114.567 9.44802 114.473 9.35543C114.378 9.26285 114.265 9.21655 114.136 9.21655C114.006 9.21655 113.902 9.26099 113.81 9.35173C113.717 9.44247 113.671 9.55172 113.671 9.68134C113.671 9.81096 113.715 9.92207 113.806 10.0147C113.897 10.1072 114.006 10.1535 114.136 10.1535Z" fill="white"/>
<path d="M115.578 14.3662H121.321C121.43 14.3662 121.522 14.3292 121.597 14.2533C121.671 14.1792 121.708 14.0866 121.708 13.9755C121.708 13.8644 121.671 13.7811 121.597 13.7052C121.521 13.6292 121.43 13.5922 121.321 13.5922H119.937C119.673 13.5922 119.452 13.5126 119.276 13.357C119.099 13.1996 119.012 12.9959 119.012 12.746V12.4386C119.026 12.1886 119.124 11.9793 119.304 11.8127C119.484 11.646 119.695 11.5608 119.939 11.5608C120.184 11.5608 120.284 11.6108 120.421 11.7108C120.558 11.8108 120.648 11.9386 120.693 12.0923C120.763 12.1515 120.839 12.183 120.924 12.183C121.01 12.183 121.098 12.1497 121.178 12.0849C121.267 12.0108 121.313 11.9127 121.313 11.7923C121.313 11.6719 121.265 11.5682 121.171 11.4923C121.056 11.2831 120.885 11.1109 120.661 10.9794C120.437 10.8479 120.195 10.7812 119.936 10.7812C119.676 10.7812 119.365 10.8553 119.11 11.0016C118.852 11.1497 118.647 11.3479 118.489 11.5979C118.332 11.8479 118.249 12.1219 118.239 12.4219L118.232 12.7515C118.232 12.9311 118.269 13.0959 118.341 13.2422C118.413 13.3904 118.512 13.5052 118.637 13.5903H115.406C115.247 13.5903 115.121 13.5422 115.028 13.4441C114.936 13.3459 114.89 13.22 114.89 13.0663V11.3201C114.89 11.1757 114.838 11.0498 114.732 10.9424C114.627 10.835 114.501 10.7812 114.351 10.7812H113.154C112.836 10.7812 112.543 10.859 112.28 11.0127C112.016 11.1683 111.81 11.3775 111.66 11.6423C111.51 11.9071 111.436 12.2015 111.436 12.5274V12.7145C111.442 13.0145 111.521 13.2904 111.679 13.5422C111.836 13.794 112.045 13.994 112.31 14.1422C112.575 14.2903 112.858 14.3625 113.162 14.3625C113.466 14.3625 113.636 14.307 113.851 14.1977C114.066 14.0885 114.241 13.9422 114.382 13.7626C114.482 13.9422 114.625 14.0866 114.812 14.1977C114.999 14.307 115.197 14.3625 115.406 14.3625H115.578V14.3662ZM114.114 12.7089C114.108 12.9645 114.014 13.1756 113.827 13.3422C113.64 13.5089 113.414 13.594 113.149 13.594C112.895 13.5885 112.675 13.4978 112.488 13.32C112.301 13.1422 112.205 12.9293 112.201 12.6793V12.4997C112.201 12.2293 112.295 12.0053 112.486 11.8256C112.675 11.646 112.906 11.5553 113.18 11.5553H113.943C113.993 11.5553 114.034 11.5719 114.067 11.6034C114.099 11.6368 114.116 11.6775 114.116 11.7275V12.7089H114.114Z" fill="white"/>
<path d="M112.878 10.1535C113.008 10.1535 113.119 10.1072 113.212 10.0147C113.304 9.92207 113.351 9.81096 113.351 9.68134C113.351 9.55172 113.304 9.44802 113.212 9.35543C113.119 9.26285 113.008 9.21655 112.878 9.21655C112.749 9.21655 112.638 9.26099 112.545 9.35173C112.453 9.44247 112.406 9.55172 112.406 9.68134C112.406 9.81096 112.453 9.92207 112.545 10.0147C112.638 10.1072 112.749 10.1535 112.878 10.1535Z" fill="white"/>
<path d="M133.926 15.8159C134.018 15.7233 134.065 15.6122 134.065 15.4826C134.065 15.353 134.018 15.2493 133.926 15.1567C133.833 15.0641 133.722 15.0178 133.592 15.0178C133.463 15.0178 133.352 15.0623 133.259 15.153C133.166 15.2437 133.12 15.353 133.12 15.4826C133.12 15.6122 133.166 15.7233 133.259 15.8159C133.352 15.9085 133.463 15.9548 133.592 15.9548C133.722 15.9548 133.833 15.9085 133.926 15.8159Z" fill="white"/>
<path d="M139.205 14.1459C139.466 13.9996 139.677 13.7977 139.833 13.5459C139.99 13.2941 140.07 13.0182 140.075 12.7182V12.5311C140.075 12.2071 139.999 11.9108 139.851 11.646C139.701 11.3812 139.496 11.172 139.234 11.0164C138.973 10.8609 138.683 10.785 138.364 10.785H137.168C137.018 10.785 136.892 10.8387 136.786 10.9461C136.681 11.0535 136.629 11.1794 136.629 11.3238V13.07C136.629 13.2256 136.583 13.3515 136.492 13.4478C136.399 13.5459 136.272 13.594 136.107 13.594H135.457C135.342 13.594 135.25 13.5552 135.181 13.4774C135.111 13.3996 135.075 13.2959 135.075 13.1663V12.9256C135.075 12.5256 135.005 12.1867 134.866 11.9053C134.727 11.6256 134.548 11.4053 134.327 11.246C133.929 10.9405 133.42 10.7887 132.802 10.7887C132.183 10.7887 132.268 10.8201 132.009 10.8868C131.924 10.9072 131.857 10.9516 131.807 11.022C131.757 11.0923 131.733 11.172 131.733 11.2609C131.733 11.3497 131.74 11.3516 131.755 11.396V11.4034C131.785 11.4775 131.833 11.5368 131.898 11.5794C131.963 11.6219 132.033 11.6423 132.107 11.6423C132.181 11.6423 132.177 11.6405 132.196 11.6349C132.435 11.5849 132.652 11.5608 132.846 11.5608C133.264 11.5608 133.603 11.6608 133.863 11.8608C134.166 12.096 134.318 12.4626 134.318 12.9626V13.1719C134.318 13.2626 134.338 13.3422 134.381 13.4163C134.424 13.4885 134.479 13.5478 134.55 13.5922H131.094C130.974 13.5922 130.872 13.5496 130.787 13.4644C130.702 13.3792 130.659 13.2755 130.659 13.1496V12.4367C130.654 12.1367 130.574 11.859 130.416 11.6053C130.259 11.3497 130.052 11.1497 129.792 11.0016C129.533 10.8553 129.254 10.7812 128.955 10.7812H127.73C127.58 10.7812 127.454 10.835 127.348 10.9424C127.243 11.0498 127.191 11.1757 127.191 11.3201V13.0663C127.191 13.2218 127.143 13.3478 127.046 13.4441C126.948 13.5422 126.822 13.5903 126.669 13.5903H125.913V11.3201C125.913 11.1757 125.861 11.0498 125.756 10.9424C125.65 10.835 125.524 10.7812 125.374 10.7812H124.284C123.959 10.7812 123.663 10.8609 123.397 11.0183C123.13 11.1757 122.921 11.3905 122.769 11.6627C122.617 11.9349 122.541 12.233 122.541 12.5589C122.541 12.8848 122.617 13.1922 122.769 13.47C122.921 13.7477 123.13 13.9663 123.397 14.1255C123.663 14.2848 123.959 14.3644 124.284 14.3644H125.113L125.106 14.4847C125.076 14.7144 124.996 14.8903 124.867 15.0088C124.693 15.168 124.483 15.2754 124.239 15.3273C123.995 15.3791 123.698 15.4088 123.35 15.4143C123.245 15.4143 123.158 15.4532 123.089 15.531C123.019 15.6087 122.984 15.7013 122.984 15.8124C122.984 15.9235 123.021 15.9976 123.097 16.0717C123.171 16.1439 123.258 16.1809 123.358 16.1809C123.852 16.1809 124.252 16.1365 124.558 16.0458C124.863 15.955 125.137 15.7976 125.376 15.5736C125.709 15.2588 125.889 14.8569 125.915 14.3662H126.67C126.883 14.3662 127.083 14.3125 127.265 14.2051C127.446 14.0977 127.591 13.9533 127.694 13.7737C127.844 13.9644 128.026 14.1107 128.241 14.2125C128.455 14.3144 128.694 14.3662 128.959 14.3662C129.224 14.3662 129.422 14.3144 129.631 14.2125C129.841 14.1107 130.017 13.97 130.155 13.7885C130.235 13.9588 130.361 14.0977 130.533 14.2051C130.705 14.3125 130.894 14.3662 131.098 14.3662H136.109C136.324 14.3662 136.522 14.3125 136.707 14.2051C136.892 14.0977 137.036 13.9514 137.14 13.7663C137.279 13.9459 137.457 14.0903 137.672 14.2014C137.886 14.3107 138.116 14.3662 138.36 14.3662C138.605 14.3662 138.947 14.2922 139.209 14.1459M125.135 13.594H124.284C124.004 13.594 123.771 13.4941 123.584 13.2941C123.397 13.0941 123.302 12.8496 123.302 12.5589C123.302 12.2682 123.397 12.0423 123.584 11.8497C123.771 11.6571 124.004 11.5608 124.284 11.5608H124.963C125.013 11.5608 125.054 11.5775 125.087 11.609C125.12 11.6405 125.135 11.683 125.135 11.733V13.5922V13.594ZM129.883 12.6571C129.883 12.9219 129.791 13.1422 129.607 13.32C129.422 13.4978 129.185 13.5885 128.896 13.594C128.731 13.594 128.578 13.5533 128.437 13.47C128.294 13.3867 128.181 13.2774 128.096 13.1404C128.011 13.0033 127.968 12.8515 127.968 12.6867V11.7349C127.968 11.6849 127.985 11.6442 128.017 11.6108C128.048 11.5775 128.091 11.5627 128.141 11.5627H128.896C129.18 11.5627 129.413 11.646 129.596 11.8145C129.778 11.9812 129.874 12.196 129.883 12.4552V12.6571ZM137.407 12.7089V11.7275C137.407 11.6775 137.423 11.6368 137.455 11.6034C137.486 11.5701 137.529 11.5553 137.579 11.5553H138.342C138.616 11.5553 138.847 11.646 139.035 11.8256C139.222 12.0053 139.316 12.2312 139.316 12.4997V12.6793C139.31 12.9293 139.216 13.1422 139.031 13.32C138.846 13.4978 138.623 13.5885 138.366 13.594C138.101 13.594 137.877 13.5107 137.692 13.3422C137.507 13.1756 137.412 12.9645 137.409 12.7089" fill="white"/>
<path d="M63.976 17.7808C63.876 17.7808 63.7871 17.8086 63.7056 17.8641C63.626 17.9197 63.5704 17.9938 63.5371 18.0863L62.315 20.9473L61.1706 18.0975C61.1373 18.0012 61.0817 17.9234 61.0002 17.866C60.9206 17.8086 60.8299 17.779 60.7262 17.779H60.7039C60.578 17.779 60.4688 17.8252 60.3762 17.916C60.2836 18.0067 60.2373 18.1178 60.2373 18.2474V21.3547C60.2373 21.4436 60.2688 21.5195 60.3317 21.5824C60.3947 21.6454 60.4706 21.6769 60.5595 21.6769C60.6484 21.6769 60.7169 21.6454 60.778 21.5824C60.8391 21.5195 60.8688 21.4436 60.8688 21.3547V18.6993L61.9798 21.438C62.0057 21.5084 62.0502 21.5658 62.1094 21.6102C62.1705 21.6547 62.239 21.6769 62.3131 21.6769C62.3872 21.6769 62.4557 21.6565 62.5187 21.6121C62.5816 21.5695 62.6261 21.5121 62.652 21.4417L63.8075 18.6974V21.3584C63.8075 21.4436 63.8389 21.5176 63.9019 21.5806C63.9649 21.6435 64.0389 21.675 64.1241 21.675C64.2093 21.675 64.2834 21.6435 64.3463 21.5806C64.4093 21.5176 64.4408 21.4436 64.4408 21.3584V18.2456C64.4408 18.116 64.3963 18.0049 64.3037 17.9141C64.213 17.8234 64.1037 17.7771 63.9741 17.7771" fill="white"/>
<path d="M67.7629 21.0934H66.0685V20.0416H67.5851C67.6629 20.0416 67.7314 20.0138 67.7888 19.9546C67.8462 19.8972 67.8758 19.8305 67.8758 19.7564V19.7509C67.8758 19.6731 67.8462 19.6064 67.7888 19.5509C67.7314 19.4953 67.6647 19.4676 67.5851 19.4676H66.0685V18.3602H67.7073C67.7814 18.3602 67.8462 18.3324 67.9036 18.2769C67.961 18.2213 67.9907 18.1547 67.9907 18.0769V18.0658C67.9907 17.988 67.9629 17.9214 67.9036 17.8658C67.8462 17.8102 67.7796 17.7825 67.7073 17.7825H65.913C65.7797 17.7825 65.6667 17.8288 65.5723 17.9251C65.4778 18.0195 65.4297 18.1343 65.4297 18.2676V21.1952C65.4297 21.3286 65.4778 21.4434 65.5723 21.5378C65.6667 21.6322 65.7797 21.6804 65.913 21.6804H67.7629C67.837 21.6804 67.9036 21.6526 67.9592 21.5971C68.0166 21.5415 68.0444 21.4748 68.0444 21.3971V21.386C68.0444 21.3082 68.0166 21.2397 67.9592 21.1823C67.9018 21.1249 67.8351 21.0952 67.7629 21.0952" fill="white"/>
<path d="M72.6458 17.7808C72.5458 17.7808 72.4569 17.8086 72.3754 17.8641C72.2958 17.9197 72.2403 17.9938 72.2051 18.0863L70.9829 20.9473L69.8386 18.0975C69.8052 18.0012 69.7497 17.9234 69.6682 17.866C69.5886 17.8086 69.496 17.779 69.3941 17.779H69.3719C69.246 17.779 69.1367 17.8252 69.0442 17.916C68.9516 18.0067 68.9053 18.1178 68.9053 18.2474V21.3547C68.9053 21.4436 68.9368 21.5195 68.9997 21.5824C69.0627 21.6454 69.1386 21.6769 69.2275 21.6769C69.3164 21.6769 69.3849 21.6454 69.446 21.5824C69.5071 21.5195 69.5367 21.4436 69.5367 21.3547V18.6993L70.6478 21.438C70.6737 21.5084 70.7181 21.5658 70.7792 21.6102C70.8403 21.6547 70.9089 21.6769 70.9829 21.6769C71.057 21.6769 71.1255 21.6565 71.1885 21.6121C71.2514 21.5695 71.2959 21.5121 71.3218 21.4417L72.4773 18.6974V21.3584C72.4773 21.4436 72.5088 21.5176 72.5717 21.5806C72.6347 21.6435 72.7088 21.675 72.7939 21.675C72.8791 21.675 72.9532 21.6435 73.0161 21.5806C73.0791 21.5176 73.1106 21.4436 73.1106 21.3584V18.2456C73.1106 18.116 73.0661 18.0049 72.9736 17.9141C72.8828 17.8234 72.7736 17.7771 72.6439 17.7771" fill="white"/>
<path d="M78.3325 19.5398H77.5659C77.4918 19.5398 77.4289 19.5658 77.377 19.6176C77.3252 19.6695 77.2992 19.7306 77.2992 19.8009C77.2992 19.8713 77.3252 19.938 77.377 19.9898C77.4289 20.0417 77.4918 20.0676 77.5659 20.0676H78.2214V20.7416C78.0844 20.8898 77.9251 20.9953 77.7437 21.0583C77.5622 21.1212 77.3567 21.1527 77.127 21.1527C76.8567 21.149 76.6197 21.086 76.416 20.9638C76.2123 20.8416 76.0567 20.6731 75.9493 20.4601C75.8419 20.2472 75.7882 20.0065 75.7882 19.7398C75.7882 19.4732 75.8438 19.2306 75.9549 19.0139C76.066 18.7973 76.2215 18.6269 76.4234 18.5029C76.6252 18.3788 76.8604 18.3158 77.127 18.3158C77.3937 18.3158 77.5122 18.3547 77.6715 18.4325C77.8307 18.5103 77.9622 18.6232 78.0659 18.7714C78.1214 18.8158 78.1825 18.838 78.2492 18.838C78.3159 18.838 78.364 18.8195 78.427 18.7825C78.5158 18.7195 78.5603 18.6343 78.5603 18.5269C78.5603 18.4195 78.5473 18.4306 78.5214 18.3843C78.4955 18.338 78.4603 18.2992 78.4159 18.2695C78.264 18.0918 78.077 17.9547 77.8585 17.8566C77.6381 17.7603 77.3937 17.7122 77.1289 17.7122C76.7252 17.7122 76.3715 17.7992 76.0678 17.977C75.7642 18.1529 75.5327 18.3955 75.3716 18.7028C75.2105 19.0102 75.1309 19.3565 75.1309 19.738C75.1309 20.1194 75.2086 20.4583 75.366 20.762C75.5234 21.0657 75.753 21.3064 76.0549 21.4823C76.3567 21.6582 76.7141 21.749 77.1289 21.7527C77.4807 21.7527 77.7974 21.6879 78.0807 21.5601C78.364 21.4323 78.6066 21.2434 78.8103 20.9953L78.8158 20.0157C78.8158 19.8861 78.7695 19.7731 78.6751 19.6787C78.5807 19.5843 78.4659 19.5361 78.3325 19.5361" fill="white"/>
<path d="M81.0213 18.8713C80.9842 18.8713 80.9565 18.875 80.9379 18.8824C80.7787 18.8824 80.6268 18.9306 80.4824 19.025C80.338 19.1195 80.2287 19.2435 80.1547 19.3954V19.1676C80.1509 19.0898 80.1213 19.025 80.0658 18.9732C80.0102 18.9213 79.9454 18.8954 79.8713 18.8954C79.7973 18.8954 79.6991 18.9232 79.6417 18.9787C79.5843 19.0343 79.5547 19.1028 79.5547 19.1843V21.3675C79.5547 21.4527 79.5843 21.5267 79.6436 21.5878C79.7028 21.649 79.775 21.6804 79.8602 21.6804C79.9454 21.6804 80.0195 21.649 80.0787 21.5878C80.1398 21.5267 80.1713 21.4527 80.1713 21.3675V20.2379C80.1713 19.9935 80.238 19.8009 80.3713 19.6583C80.5046 19.5176 80.6805 19.4472 80.899 19.4472C81.1176 19.4472 80.9898 19.4491 81.0157 19.4528C81.0935 19.4528 81.1583 19.4269 81.2101 19.3713C81.262 19.3176 81.2898 19.2435 81.2935 19.151C81.2935 19.0732 81.2676 19.0065 81.212 18.9528C81.1583 18.8991 81.0935 18.8713 81.0213 18.8713Z" fill="white"/>
<path d="M83.8281 19.0122C83.604 18.89 83.3503 18.8289 83.0651 18.8289C82.78 18.8289 82.5133 18.89 82.2856 19.0122C82.0578 19.1344 81.88 19.3048 81.7522 19.5214C81.6245 19.7381 81.5615 19.9862 81.5615 20.264C81.5615 20.5417 81.6245 20.8102 81.7504 21.0343C81.8763 21.2583 82.0504 21.4324 82.2744 21.5583C82.4985 21.6824 82.7559 21.7454 83.0485 21.7454C83.341 21.7454 83.5947 21.6824 83.8207 21.5565C84.0466 21.4306 84.2225 21.2546 84.3484 21.0306C84.4743 20.8065 84.5373 20.551 84.5373 20.2658C84.5373 19.9806 84.4762 19.7399 84.3521 19.5233C84.228 19.3066 84.054 19.1362 83.8299 19.014M83.6725 20.951C83.5114 21.1232 83.304 21.2102 83.0485 21.2102C82.7929 21.2102 82.5855 21.1232 82.4263 20.951C82.267 20.7787 82.1874 20.5547 82.1874 20.2806C82.1874 20.0066 82.2689 19.7825 82.4318 19.6066C82.5948 19.4325 82.8059 19.3455 83.0651 19.3455C83.3244 19.3455 83.3744 19.3844 83.504 19.4659C83.6336 19.5455 83.7355 19.6566 83.8077 19.7992C83.8799 19.9418 83.9151 20.1029 83.9151 20.2806C83.9151 20.5547 83.8355 20.7787 83.6744 20.951" fill="white"/>
<path d="M87.391 18.8955C87.3058 18.8955 87.2318 18.927 87.1725 18.9881C87.1114 19.0492 87.0818 19.1214 87.0818 19.2029L87.0873 20.5269C87.0873 20.7084 87.0225 20.8658 86.8929 20.9954C86.7633 21.125 86.6077 21.1898 86.4262 21.1898C86.2448 21.1861 86.0911 21.1195 85.9615 20.9917C85.8337 20.8639 85.7707 20.7084 85.7707 20.5269V19.2029C85.7707 19.1214 85.7392 19.0492 85.68 18.9881C85.6189 18.927 85.5448 18.8955 85.4615 18.8955C85.3782 18.8955 85.3041 18.927 85.243 18.9881C85.1819 19.0492 85.1504 19.1214 85.1504 19.2029V20.7232C85.1504 20.9084 85.1967 21.0806 85.2893 21.2398C85.3819 21.3991 85.5059 21.525 85.6633 21.6157C85.8207 21.7065 85.9911 21.7527 86.1763 21.7527C86.3614 21.7527 86.5596 21.7028 86.7262 21.6046C86.8929 21.5065 87.017 21.375 87.0984 21.212V21.4176C87.0984 21.4879 87.1225 21.5491 87.1725 21.6009C87.2225 21.6528 87.2817 21.6787 87.354 21.6787H87.4484C87.5188 21.6787 87.5799 21.6528 87.628 21.6009C87.678 21.5491 87.7021 21.4879 87.7021 21.4176V19.201C87.7021 19.1159 87.6725 19.0436 87.6114 18.9844C87.5503 18.9251 87.4762 18.8955 87.3929 18.8955" fill="white"/>
<path d="M90.1447 18.8323C89.9077 18.8323 89.6929 18.8897 89.4984 19.0045C89.304 19.1193 89.167 19.2711 89.0855 19.46V19.1656C89.0855 19.0915 89.0577 19.0267 89.0059 18.973C88.9522 18.9193 88.8892 18.8934 88.8133 18.8934H88.7966C88.7225 18.8934 88.6596 18.9193 88.604 18.973C88.5503 19.0267 88.5244 19.0915 88.5244 19.1656V22.3839C88.5244 22.4691 88.554 22.5413 88.6133 22.5987C88.6726 22.6561 88.7429 22.6858 88.8244 22.6858C88.9059 22.6858 88.9818 22.6561 89.041 22.5969C89.1003 22.5376 89.1299 22.4673 89.1299 22.3858V21.1229C89.1633 21.2229 89.2262 21.321 89.317 21.4155C89.4077 21.5099 89.5244 21.5877 89.6669 21.6488C89.8095 21.7099 89.9651 21.7414 90.1354 21.7414C90.4058 21.7414 90.6391 21.6803 90.8354 21.5599C91.0317 21.4395 91.1835 21.271 91.2872 21.0525C91.3928 20.8359 91.4465 20.5859 91.4465 20.3044C91.4465 19.8507 91.3335 19.4933 91.1076 19.2304C90.8817 18.9675 90.5613 18.8341 90.1465 18.8341M90.5891 20.9618C90.4336 21.1303 90.2336 21.2155 89.9891 21.2155C89.7447 21.2155 89.5262 21.1303 89.367 20.9599C89.2077 20.7896 89.1281 20.5692 89.1281 20.3026C89.1281 20.0359 89.2059 19.8081 89.3633 19.6341C89.5206 19.46 89.7225 19.373 89.9706 19.373C90.2188 19.373 90.4262 19.46 90.5835 19.6322C90.7409 19.8044 90.8206 20.0285 90.8206 20.3026C90.8206 20.5766 90.7428 20.7933 90.5873 20.9618" fill="white"/>
<path d="M96.2941 17.7805C96.2052 17.7805 96.1311 17.812 96.07 17.875C96.0089 17.9379 95.9793 18.012 95.9793 18.0972V19.5341H94.0516V18.0972C94.0516 18.012 94.0202 17.9379 93.9572 17.875C93.8942 17.812 93.8183 17.7805 93.7294 17.7805C93.6406 17.7805 93.5646 17.812 93.5017 17.875C93.4387 17.9379 93.4072 18.012 93.4072 18.0972V21.3544C93.4072 21.4433 93.4387 21.5192 93.5017 21.5821C93.5646 21.6451 93.6406 21.6766 93.7294 21.6766C93.8183 21.6766 93.8942 21.6451 93.9572 21.5821C94.0202 21.5192 94.0516 21.4433 94.0516 21.3544V20.1285H95.9793V21.3544C95.9793 21.4433 96.0089 21.5192 96.07 21.5821C96.1311 21.6451 96.2071 21.6766 96.2941 21.6766C96.3811 21.6766 96.4589 21.6451 96.5219 21.5821C96.5848 21.5192 96.6163 21.4433 96.6163 21.3544V18.0972C96.6163 18.012 96.5848 17.9379 96.5219 17.875C96.4589 17.812 96.383 17.7805 96.2941 17.7805Z" fill="white"/>
<path d="M99.6181 19.0122C99.394 18.89 99.1404 18.8289 98.8552 18.8289C98.57 18.8289 98.3034 18.89 98.0756 19.0122C97.8478 19.1344 97.6701 19.3048 97.5423 19.5214C97.4145 19.7381 97.3516 19.9862 97.3516 20.264C97.3516 20.5417 97.4145 20.8102 97.5404 21.0343C97.6664 21.2583 97.8404 21.4324 98.0645 21.5583C98.2885 21.6824 98.5459 21.7454 98.8385 21.7454C99.1311 21.7454 99.3848 21.6824 99.6107 21.5565C99.8366 21.4306 100.013 21.2546 100.138 21.0306C100.264 20.8065 100.327 20.551 100.327 20.2658C100.327 19.9806 100.264 19.7399 100.14 19.5233C100.016 19.3066 99.8422 19.1362 99.6181 19.014M99.4626 20.951C99.3014 21.1232 99.0941 21.2102 98.8385 21.2102C98.583 21.2102 98.3756 21.1232 98.2163 20.951C98.0571 20.7787 97.9775 20.5547 97.9775 20.2806C97.9775 20.0066 98.0589 19.7825 98.2219 19.6066C98.3848 19.4325 98.5959 19.3455 98.8552 19.3455C99.1144 19.3455 99.1644 19.3844 99.294 19.4659C99.4237 19.5455 99.5255 19.6566 99.5977 19.7992C99.67 19.9418 99.7051 20.1029 99.7051 20.2806C99.7051 20.5547 99.6255 20.7787 99.4644 20.951" fill="white"/>
<path d="M101.264 17.7805C101.179 17.7805 101.107 17.812 101.046 17.8731C100.985 17.9342 100.955 18.0064 100.955 18.0879V21.3673C100.955 21.4525 100.985 21.5266 101.046 21.5877C101.107 21.6488 101.179 21.6803 101.264 21.6803C101.35 21.6803 101.424 21.6488 101.483 21.5877C101.544 21.5266 101.575 21.4525 101.575 21.3673V18.0879C101.575 18.0027 101.544 17.9305 101.483 17.8713C101.422 17.812 101.35 17.7824 101.264 17.7824" fill="white"/>
<path d="M104.775 17.7805C104.694 17.7805 104.624 17.8101 104.564 17.8694C104.505 17.9287 104.476 18.0009 104.476 18.0861V19.4452C104.442 19.3452 104.377 19.2471 104.281 19.1527C104.185 19.0582 104.064 18.9804 103.924 18.9193C103.781 18.8582 103.629 18.8268 103.466 18.8268C103.196 18.8268 102.963 18.8879 102.766 19.0101C102.57 19.1323 102.418 19.3027 102.313 19.5193C102.207 19.736 102.155 19.9859 102.155 20.2674C102.155 20.7174 102.268 21.0748 102.496 21.3396C102.724 21.6044 103.046 21.7377 103.461 21.7377C103.876 21.7377 103.909 21.6803 104.105 21.5655C104.301 21.4507 104.44 21.2988 104.522 21.1081V21.4025C104.522 21.4766 104.55 21.5414 104.603 21.5951C104.657 21.6488 104.72 21.6766 104.794 21.6766H104.811C104.885 21.6766 104.948 21.6488 105.001 21.5933C105.055 21.5377 105.081 21.4747 105.081 21.4044V18.0861C105.081 18.0009 105.051 17.9287 104.992 17.8694C104.933 17.8101 104.861 17.7805 104.775 17.7805ZM104.237 20.934C104.077 21.1063 103.874 21.1933 103.626 21.1933C103.377 21.1933 103.17 21.1081 103.014 20.9377C102.859 20.7674 102.781 20.5452 102.781 20.2693C102.781 19.9934 102.859 19.7785 103.013 19.61C103.166 19.4415 103.364 19.3564 103.609 19.3564C103.853 19.3564 104.072 19.4415 104.233 19.61C104.394 19.7785 104.474 19.9989 104.474 20.2693C104.474 20.5396 104.394 20.7618 104.235 20.934" fill="white"/>
<path d="M106.214 18.8955C106.129 18.8955 106.055 18.927 105.995 18.9881C105.934 19.0492 105.903 19.1233 105.903 19.2085V21.3676C105.903 21.4528 105.934 21.5268 105.995 21.5879C106.057 21.6491 106.129 21.6805 106.214 21.6805C106.299 21.6805 106.371 21.6509 106.431 21.5879C106.49 21.5268 106.519 21.4528 106.519 21.3676V19.2085C106.519 19.1233 106.488 19.0492 106.429 18.9881C106.368 18.927 106.297 18.8955 106.216 18.8955" fill="white"/>
<path d="M106.214 17.5694C106.107 17.5694 106.014 17.6064 105.94 17.6805C105.864 17.7546 105.827 17.8453 105.827 17.9527C105.827 18.0601 105.864 18.1508 105.94 18.2249C106.016 18.299 106.107 18.336 106.214 18.336C106.322 18.336 106.407 18.299 106.481 18.2212C106.555 18.1453 106.592 18.0545 106.592 17.9508C106.592 17.8471 106.555 17.7564 106.481 17.6805C106.407 17.6046 106.318 17.5657 106.214 17.5657" fill="white"/>
<path d="M109.388 18.9639C109.231 18.8732 109.06 18.8269 108.873 18.8269C108.686 18.8269 108.49 18.875 108.323 18.9713C108.157 19.0676 108.033 19.1973 107.951 19.3602V19.1491C107.951 19.0787 107.927 19.0176 107.877 18.9676C107.827 18.9176 107.768 18.8917 107.698 18.8917H107.603C107.533 18.8917 107.473 18.9158 107.422 18.9676C107.372 19.0176 107.346 19.0787 107.346 19.1491V21.3638C107.346 21.449 107.377 21.523 107.438 21.5842C107.499 21.6453 107.572 21.6767 107.657 21.6767C107.742 21.6767 107.814 21.6471 107.875 21.5842C107.936 21.523 107.966 21.449 107.966 21.3638L107.96 20.0435C107.96 19.862 108.025 19.7065 108.155 19.575C108.285 19.4454 108.44 19.3806 108.622 19.3806C108.803 19.3843 108.957 19.4509 109.084 19.5787C109.212 19.7065 109.275 19.862 109.275 20.0435V21.3638C109.275 21.449 109.307 21.523 109.366 21.5842C109.427 21.6453 109.501 21.6767 109.584 21.6767C109.668 21.6767 109.742 21.6471 109.803 21.5842C109.864 21.523 109.894 21.449 109.894 21.3638V19.8491C109.894 19.6639 109.847 19.4917 109.755 19.3343C109.662 19.1769 109.536 19.0528 109.379 18.9621" fill="white"/>
<path d="M113.201 18.89H113.156C113.086 18.89 113.025 18.9159 112.973 18.9659C112.921 19.0159 112.895 19.0788 112.895 19.1529V19.4473C112.869 19.3659 112.814 19.277 112.728 19.1825C112.643 19.0881 112.527 19.0048 112.377 18.9344C112.227 18.864 112.047 18.8289 111.836 18.8289C111.625 18.8289 111.338 18.8881 111.141 19.0048C110.945 19.1214 110.793 19.2844 110.69 19.4955C110.584 19.7047 110.532 19.9455 110.532 20.2158C110.532 20.4862 110.586 20.7473 110.697 20.9639C110.806 21.1806 110.964 21.3491 111.171 21.4713C111.378 21.5917 111.621 21.6528 111.899 21.6528C112.177 21.6528 112.395 21.5917 112.554 21.4694C112.714 21.3472 112.821 21.2195 112.877 21.0861V21.3695C112.877 21.6842 112.788 21.925 112.61 22.0898C112.432 22.2546 112.21 22.3379 111.943 22.3379C111.677 22.3379 111.628 22.3064 111.488 22.2453C111.347 22.1842 111.223 22.099 111.116 21.9916C111.071 21.9731 111.032 21.9639 110.999 21.9639C110.966 21.9639 110.919 21.975 110.88 21.9972C110.841 22.0194 110.808 22.049 110.782 22.0861C110.753 22.1342 110.738 22.1824 110.738 22.2305C110.738 22.2787 110.751 22.3231 110.777 22.3675C110.803 22.4101 110.84 22.4453 110.888 22.4712C111.017 22.6009 111.177 22.7027 111.366 22.7749C111.554 22.8471 111.76 22.8842 111.982 22.8842C112.204 22.8842 112.523 22.8231 112.749 22.6972C112.975 22.5731 113.151 22.4009 113.277 22.1787C113.402 21.9583 113.465 21.7065 113.465 21.425V19.1529C113.465 19.0788 113.439 19.0159 113.391 18.9659C113.341 18.9159 113.278 18.89 113.204 18.89M112.606 20.8991C112.443 21.0621 112.238 21.1435 111.99 21.1435C111.741 21.1435 111.536 21.0602 111.384 20.8954C111.232 20.7306 111.156 20.5176 111.156 20.2584C111.156 19.9992 111.234 19.7751 111.391 19.6103C111.549 19.4455 111.754 19.3622 112.006 19.3622C112.258 19.3622 112.291 19.3955 112.419 19.4622C112.547 19.5288 112.651 19.6307 112.73 19.7658C112.81 19.901 112.851 20.0658 112.851 20.2584C112.851 20.451 112.769 20.7343 112.606 20.8991Z" fill="white"/>
<path d="M118.782 20.5917C118.73 20.5621 118.676 20.5473 118.621 20.5473C118.536 20.5473 118.463 20.5769 118.404 20.6361C118.293 20.8028 118.152 20.9306 117.98 21.0195C117.808 21.1083 117.612 21.1528 117.393 21.1528C117.175 21.1528 116.886 21.0917 116.682 20.9658C116.478 20.8417 116.323 20.6713 116.215 20.4565C116.108 20.2417 116.054 20.001 116.054 19.7325C116.054 19.464 116.11 19.2233 116.221 19.0066C116.332 18.79 116.488 18.6196 116.689 18.4974C116.891 18.3752 117.125 18.3141 117.391 18.3141C117.658 18.3141 117.8 18.3604 117.978 18.4529C118.154 18.5455 118.295 18.6714 118.402 18.8307C118.461 18.8862 118.532 18.914 118.613 18.914C118.695 18.914 118.721 18.9011 118.769 18.8751C118.817 18.8492 118.854 18.8122 118.88 18.7659C118.906 18.7196 118.919 18.6677 118.919 18.6122C118.919 18.527 118.889 18.4548 118.83 18.3955C118.667 18.1733 118.463 18.003 118.215 17.8826C117.969 17.7641 117.695 17.7048 117.391 17.7048C117.087 17.7048 116.634 17.7937 116.33 17.9715C116.026 18.1493 115.793 18.3918 115.63 18.7011C115.467 19.0085 115.386 19.3529 115.386 19.7306C115.386 20.1084 115.465 20.451 115.625 20.7584C115.784 21.0639 116.015 21.3065 116.319 21.4824C116.623 21.6583 116.98 21.7472 117.391 21.7472C117.802 21.7472 117.976 21.6898 118.224 21.5768C118.473 21.4639 118.676 21.2972 118.836 21.0787C118.898 21.0158 118.93 20.9417 118.93 20.8565C118.93 20.7713 118.917 20.7547 118.891 20.7065C118.865 20.6584 118.828 20.6195 118.78 20.5899" fill="white"/>
<path d="M121.728 19.0122C121.504 18.89 121.25 18.8289 120.965 18.8289C120.68 18.8289 120.413 18.89 120.185 19.0122C119.958 19.1344 119.78 19.3048 119.652 19.5214C119.524 19.7381 119.459 19.9862 119.459 20.264C119.459 20.5417 119.522 20.8102 119.648 21.0343C119.774 21.2583 119.948 21.4324 120.172 21.5583C120.396 21.6824 120.654 21.7454 120.946 21.7454C121.239 21.7454 121.493 21.6824 121.719 21.5565C121.945 21.4306 122.12 21.2546 122.246 21.0306C122.372 20.8065 122.435 20.551 122.435 20.2658C122.435 19.9806 122.372 19.7399 122.248 19.5233C122.124 19.3066 121.95 19.1362 121.726 19.014M121.572 20.951C121.411 21.1232 121.204 21.2102 120.948 21.2102C120.693 21.2102 120.485 21.1232 120.326 20.951C120.167 20.7787 120.087 20.5547 120.087 20.2806C120.087 20.0066 120.169 19.7825 120.332 19.6066C120.495 19.4325 120.706 19.3455 120.965 19.3455C121.224 19.3455 121.274 19.3844 121.404 19.4659C121.533 19.5455 121.635 19.6566 121.707 19.7992C121.78 19.9418 121.815 20.1029 121.815 20.2806C121.815 20.5547 121.735 20.7787 121.574 20.951" fill="white"/>
<path d="M126.909 18.9677C126.759 18.8752 126.591 18.8289 126.405 18.8289C126.22 18.8289 126.002 18.8826 125.828 18.99C125.654 19.0974 125.531 19.2362 125.461 19.4066C125.398 19.2362 125.285 19.0974 125.122 18.99C124.959 18.8826 124.778 18.8289 124.578 18.8289C124.378 18.8289 124.209 18.877 124.05 18.9714C123.891 19.0659 123.772 19.1881 123.694 19.3362V19.1529C123.694 19.0825 123.668 19.0214 123.617 18.9714C123.565 18.9214 123.504 18.8955 123.433 18.8955H123.344C123.274 18.8955 123.213 18.9214 123.163 18.9714C123.113 19.0214 123.089 19.0825 123.089 19.1529V21.3695C123.089 21.4546 123.118 21.5287 123.18 21.5898C123.241 21.6509 123.311 21.6824 123.394 21.6824C123.478 21.6824 123.552 21.6509 123.613 21.5898C123.674 21.5287 123.704 21.4546 123.704 21.3695V20.0455C123.704 19.8603 123.761 19.7047 123.876 19.577C123.991 19.451 124.137 19.3881 124.315 19.3881C124.492 19.3881 124.63 19.451 124.748 19.577C124.867 19.7029 124.926 19.8603 124.926 20.051V21.3695C124.926 21.4546 124.957 21.5287 125.017 21.5898C125.078 21.6509 125.15 21.6824 125.231 21.6824C125.313 21.6824 125.389 21.6509 125.45 21.588C125.511 21.525 125.541 21.4528 125.541 21.3713V20.0529C125.541 19.8714 125.6 19.7158 125.716 19.5844C125.833 19.4547 125.981 19.3899 126.157 19.3899C126.333 19.3899 126.466 19.4529 126.581 19.577C126.698 19.701 126.755 19.8584 126.755 20.0473V21.3713C126.755 21.4565 126.787 21.5306 126.846 21.5917C126.907 21.6528 126.979 21.6842 127.065 21.6842C127.15 21.6842 127.222 21.6528 127.283 21.5917C127.344 21.5306 127.376 21.4565 127.376 21.3713V19.8844C127.376 19.6881 127.333 19.5084 127.252 19.3492C127.168 19.1899 127.052 19.064 126.902 18.9714" fill="white"/>
<path d="M129.8 18.8323C129.563 18.8323 129.348 18.8897 129.154 19.0045C128.959 19.1193 128.822 19.2711 128.741 19.46V19.1656C128.741 19.0915 128.713 19.0267 128.661 18.973C128.607 18.9193 128.543 18.8934 128.469 18.8934H128.452C128.378 18.8934 128.315 18.9193 128.259 18.973C128.206 19.0267 128.18 19.0915 128.18 19.1656V22.3839C128.18 22.4691 128.209 22.5413 128.269 22.5987C128.328 22.6561 128.398 22.6858 128.48 22.6858C128.561 22.6858 128.637 22.6561 128.696 22.5969C128.756 22.5376 128.785 22.4673 128.785 22.3858V21.1229C128.819 21.2229 128.881 21.321 128.972 21.4155C129.063 21.5099 129.18 21.5877 129.322 21.6488C129.465 21.7099 129.62 21.7414 129.791 21.7414C130.061 21.7414 130.294 21.6803 130.491 21.5599C130.687 21.4395 130.839 21.271 130.942 21.0525C131.048 20.8359 131.102 20.5859 131.102 20.3044C131.102 19.8507 130.989 19.4933 130.763 19.2304C130.537 18.9675 130.217 18.8341 129.802 18.8341M130.244 20.9618C130.089 21.1303 129.889 21.2155 129.644 21.2155C129.4 21.2155 129.181 21.1303 129.022 20.9599C128.863 20.7896 128.783 20.5692 128.783 20.3026C128.783 20.0359 128.861 19.8081 129.02 19.6341C129.178 19.46 129.38 19.373 129.628 19.373C129.876 19.373 130.083 19.46 130.241 19.6322C130.398 19.8044 130.478 20.0285 130.478 20.3026C130.478 20.5766 130.4 20.7933 130.244 20.9618Z" fill="white"/>
<path d="M133.518 18.9695C133.339 18.875 133.135 18.8269 132.905 18.8269C132.539 18.8269 132.229 18.9362 131.978 19.1547C131.9 19.1991 131.861 19.2676 131.861 19.3602C131.861 19.4528 131.883 19.4824 131.928 19.5269C131.972 19.5787 132.029 19.6046 132.1 19.6046C132.17 19.6046 132.177 19.5917 132.222 19.5657C132.396 19.3991 132.607 19.3158 132.855 19.3158C133.103 19.3158 133.185 19.3602 133.302 19.4491C133.418 19.538 133.476 19.6713 133.476 19.8509L133.481 20.0287C133.259 19.9954 133.052 19.9787 132.859 19.9787C132.463 19.9787 132.15 20.0509 131.92 20.1953C131.69 20.3398 131.576 20.5583 131.576 20.8472C131.576 21.136 131.665 21.3305 131.839 21.4934C132.015 21.6564 132.261 21.7378 132.579 21.7378C132.898 21.7378 133.026 21.6879 133.196 21.5879C133.366 21.4879 133.487 21.3508 133.557 21.1768V21.4268C133.557 21.4971 133.581 21.5564 133.629 21.6045C133.677 21.6527 133.737 21.6767 133.807 21.6767H133.835C133.901 21.6767 133.959 21.6527 134.011 21.6045C134.061 21.5564 134.085 21.4971 134.085 21.4268V19.9398C134.085 19.725 134.035 19.5324 133.935 19.3639C133.835 19.1954 133.694 19.0639 133.514 18.9695M133.483 20.5527C133.483 20.7786 133.416 20.9583 133.283 21.0879C133.15 21.2175 132.966 21.2823 132.733 21.2823C132.5 21.2823 132.411 21.2397 132.32 21.1564C132.229 21.0731 132.185 20.9564 132.185 20.8083C132.185 20.6601 132.255 20.5342 132.392 20.4546C132.531 20.375 132.724 20.3342 132.972 20.3342C133.22 20.3342 133.283 20.349 133.483 20.3787V20.5509V20.5527Z" fill="white"/>
<path d="M136.818 18.9639C136.66 18.8732 136.49 18.8269 136.303 18.8269C136.116 18.8269 135.92 18.875 135.753 18.9713C135.586 19.0676 135.462 19.1973 135.381 19.3602V19.1491C135.381 19.0787 135.357 19.0176 135.307 18.9676C135.257 18.9176 135.198 18.8917 135.127 18.8917H135.033C134.962 18.8917 134.903 18.9158 134.851 18.9676C134.801 19.0176 134.775 19.0787 134.775 19.1491V21.3638C134.775 21.449 134.807 21.523 134.868 21.5842C134.929 21.6453 135.001 21.6767 135.086 21.6767C135.172 21.6767 135.244 21.6471 135.305 21.5842C135.366 21.523 135.396 21.449 135.396 21.3638L135.39 20.0435C135.39 19.862 135.455 19.7065 135.585 19.575C135.714 19.4454 135.87 19.3806 136.051 19.3806C136.233 19.3843 136.386 19.4509 136.514 19.5787C136.642 19.7065 136.705 19.862 136.705 20.0435V21.3638C136.705 21.449 136.736 21.523 136.796 21.5842C136.857 21.6453 136.931 21.6767 137.014 21.6767C137.097 21.6767 137.172 21.6471 137.233 21.5842C137.294 21.523 137.325 21.449 137.325 21.3638V19.8491C137.325 19.6639 137.279 19.4917 137.186 19.3343C137.094 19.1769 136.968 19.0528 136.81 18.9621" fill="white"/>
<path d="M140.412 18.9861C140.355 18.925 140.283 18.8936 140.198 18.8936H140.192C140.129 18.8936 140.07 18.9139 140.016 18.9547C139.962 18.9954 139.925 19.0472 139.903 19.1102L139.203 20.9694L138.475 19.0991C138.453 19.0361 138.416 18.9861 138.364 18.9491C138.312 18.9121 138.253 18.8936 138.187 18.8936C138.12 18.8936 138.029 18.9232 137.97 18.9824C137.911 19.0417 137.881 19.1121 137.881 19.1935C137.881 19.275 137.888 19.2713 137.903 19.3046L138.898 21.6989L138.792 21.9434C138.751 22.0582 138.687 22.1415 138.598 22.1934C138.509 22.2452 138.383 22.2711 138.22 22.2711H138.037C137.962 22.2711 137.898 22.2989 137.842 22.3545C137.787 22.41 137.759 22.4767 137.759 22.5545C137.759 22.6322 137.787 22.6933 137.842 22.7489C137.898 22.8044 137.962 22.8322 138.037 22.8322H138.32C138.583 22.8322 138.798 22.7767 138.968 22.6674C139.136 22.5582 139.262 22.3878 139.348 22.1582L140.481 19.3028C140.492 19.2695 140.498 19.2343 140.498 19.1972C140.498 19.1158 140.47 19.0435 140.412 18.9824" fill="white"/>
</svg>
